<?xml version="1.0" encoding="UTF-8" standalone="no"?><svg fill="none" height="24" viewBox="0 0 24 24" width="24" xmlns="http://www.w3.org/2000/svg"><g fill="#292d32"><path d="m20.97 16h-2.94c-1.27 0-2.03.76-2.03 2.03v2.94c0 1.27.76 2.03 2.03 2.03h2.94c1.27 0 2.03-.76 2.03-2.03v-2.94c0-1.27-.76-2.03-2.03-2.03zm.66 2.45-2.37 2.77c-.1.11-.23.18-.38.18 0 0-.01 0-.02 0-.13 0-.27-.05-.36-.15l-1.1-1.08c-.2-.2-.2-.53 0-.74.2-.2.53-.2.74 0l.69.69 2.01-2.34c.18-.22.51-.25.73-.06s.24.52.06.73z"/><path d="m20.97 16h-2.94c-1.27 0-2.03.76-2.03 2.03v2.94c0 1.27.76 2.03 2.03 2.03h2.94c1.27 0 2.03-.76 2.03-2.03v-2.94c0-1.27-.76-2.03-2.03-2.03zm.66 2.45-2.37 2.77c-.1.11-.23.18-.38.18 0 0-.01 0-.02 0-.13 0-.27-.05-.36-.15l-1.1-1.08c-.2-.2-.2-.53 0-.74.2-.2.53-.2.74 0l.69.69 2.01-2.34c.18-.22.51-.25.73-.06s.24.52.06.73z"/><path d="m21.97 7.21c-.28-2.73-2.45-4.9-5.18-5.18-.2-.02-.4-.03-.6-.03h-8.38c-.2 0-.4.01-.6.03-2.73.28-4.9 2.45-5.18 5.18-.02.2-.03.4-.03.6v8.38c0 .2.01.4.03.6.28 2.73 2.45 4.9 5.18 5.18.2.02.4.03.6.03h6.19c.55 0 1-.45 1-1v-2.97c0-1.67 1.36-3.03 3.03-3.03h2.97c.55 0 1-.45 1-1v-6.19c0-.2-.01-.4-.03-.6zm-14.22 6.29c0 .41-.34.75-.75.75s-.75-.34-.75-.75v-3c0-.41.34-.75.75-.75s.75.34.75.75zm5 0c0 .41-.34.75-.75.75s-.75-.34-.75-.75v-3c0-.41.34-.75.75-.75s.75.34.75.75z"/></g></svg>